<?xml version="1.0" standalone="no"?>
<!DOCTYPE svg PUBLIC "-//W3C//DTD SVG 20010904//EN"
 "http://www.w3.org/TR/2001/REC-SVG-20010904/DTD/svg10.dtd">
<svg version="1.0" xmlns="http://www.w3.org/2000/svg"
 width="512.000000pt" height="512.000000pt" viewBox="0 0 512.000000 512.000000"
 preserveAspectRatio="xMidYMid meet">
<metadata>
Created by potrace 1.14, written by Peter Selinger 2001-2017
</metadata>
<g transform="translate(0.000000,512.000000) scale(0.100000,-0.100000)"
fill="#000000" stroke="none">
<path d="M1770 4556 c-591 -78 -1104 -394 -1434 -886 -32 -47 -88 -147 -125
-222 -276 -554 -280 -1199 -11 -1757 306 -633 908 -1056 1612 -1131 203 -21
394 -10 621 36 l127 26 128 -26 c456 -94 906 -38 1312 164 72 36 97 53 104 73
14 37 -3 79 -38 96 -26 12 -35 10 -145 -42 -287 -136 -587 -197 -891 -183 -74
4 -151 10 -170 14 l-34 8 34 14 c45 18 203 105 258 142 37 25 58 31 144 39
711 67 1306 594 1457 1290 99 462 -8 956 -288 1330 -283 376 -706 614 -1167
658 -96 9 -104 11 -172 55 -39 26 -115 68 -167 95 l-95 48 37 7 c86 14 294 18
408 7 463 -46 852 -232 1171 -563 542 -561 676 -1389 338 -2094 -92 -194 -197
-338 -370 -512 -84 -83 -155 -161 -159 -171 -9 -28 14 -68 47 -82 26 -11 35
-10 66 7 50 27 245 222 325 326 471 607 559 1419 227 2107 -301 622 -895 1046
-1575 1126 -232 27 -416 18 -658 -31 l-129 -27 -96 22 c-164 36 -221 42 -407
46 -117 3 -217 -1 -285 -9z m560 -165 c507 -90 954 -385 1237 -819 229 -350
337 -792 292 -1200 -91 -836 -727 -1513 -1549 -1647 -420 -68 -871 15 -1235
230 -754 443 -1099 1343 -835 2170 224 699 840 1201 1575 1285 124 14 383 4
515 -19z m1158 -386 c274 -69 551 -241 740 -457 350 -401 463 -935 305 -1443
-35 -114 -132 -305 -207 -410 -195 -271 -489 -480 -796 -568 -157 -45 -152
-48 -60 51 362 393 550 865 550 1382 0 524 -191 999 -561 1394 -43 46 -65 76
-54 73 11 -3 48 -13 83 -22z"/>
<path d="M1845 4199 c-368 -38 -712 -199 -979 -458 -196 -190 -332 -406 -416
-660 -118 -355 -116 -712 7 -1064 163 -468 542 -847 1010 -1010 433 -151 892
-118 1304 95 296 152 562 423 712 724 83 165 156 413 160 542 2 46 -2 57 -22
73 -13 10 -35 19 -50 19 -47 0 -68 -35 -85 -140 -53 -310 -185 -574 -400 -799
-510 -532 -1341 -606 -1950 -174 -104 74 -265 236 -339 340 -160 226 -258 497
-275 766 -19 285 36 552 163 795 75 144 153 250 270 367 171 170 362 288 590
364 164 54 287 73 470 73 343 -1 645 -104 912 -311 301 -234 494 -560 559
-941 17 -105 38 -140 85 -140 15 0 37 9 50 19 20 16 24 27 22 73 -4 128 -77
376 -158 539 -84 167 -168 282 -315 429 -146 146 -262 231 -426 313 -275 137
-599 197 -899 166z"/>
<path d="M1062 3447 c-12 -13 -22 -33 -22 -46 0 -12 29 -136 65 -275 36 -139
65 -257 65 -263 0 -8 -45 -13 -136 -15 -129 -3 -137 -4 -155 -27 -25 -30 -24
-62 2 -94 20 -26 21 -27 177 -29 l157 -3 27 -100 c15 -55 27 -103 28 -107 0
-5 -81 -8 -180 -8 -179 0 -181 0 -205 -25 -30 -30 -32 -64 -4 -99 l20 -26 204
0 c185 0 204 -2 209 -17 3 -10 40 -151 81 -313 42 -162 83 -305 91 -317 27
-42 92 -42 118 0 11 17 186 623 186 643 0 2 99 4 220 4 l219 0 12 -42 c6 -24
46 -169 89 -323 82 -293 92 -315 146 -315 56 0 67 26 148 345 42 165 79 308
82 318 5 15 24 17 209 17 l204 0 20 26 c28 35 26 69 -4 99 -24 25 -26 25 -205
25 l-180 0 6 28 c4 15 17 63 28 107 l21 80 157 3 c156 2 157 3 177 29 26 32
27 64 2 94 -18 23 -26 24 -155 27 -86 2 -136 7 -136 14 0 6 29 124 65 263 36
138 65 263 65 277 0 31 -39 68 -72 68 -57 0 -65 -18 -143 -320 -41 -157 -75
-288 -75 -292 0 -5 -101 -8 -224 -8 -205 0 -225 2 -230 18 -3 9 -37 132 -76
272 -38 140 -77 270 -85 287 -23 51 -101 58 -126 11 -6 -11 -45 -141 -85 -287
-41 -146 -77 -274 -80 -283 -5 -16 -25 -18 -228 -18 l-223 0 -62 243 c-87 339
-88 344 -113 362 -32 22 -71 19 -96 -8z m1018 -589 c0 -5 -31 -8 -70 -8 -38 0
-70 2 -70 5 0 10 62 230 68 239 4 8 71 -213 72 -236z m-350 -173 c0 -8 -12
-58 -27 -110 l-27 -96 -125 3 -125 3 -23 90 c-35 138 -51 125 152 125 149 0
175 -2 175 -15z m395 5 c3 -5 18 -55 34 -110 l28 -100 -173 0 c-136 0 -174 3
-174 13 0 14 49 187 57 200 6 11 221 9 228 -3z m517 5 c2 -3 -7 -51 -22 -107
l-27 -103 -125 -3 -125 -3 -26 99 c-15 54 -27 104 -27 110 0 9 48 12 173 12
96 0 176 -2 179 -5z m-1012 -373 c0 -9 -68 -259 -77 -282 -4 -13 -55 156 -78
260 l-7 30 81 0 c45 0 81 -4 81 -8z m920 3 c0 -3 -16 -71 -37 -151 -21 -87
-39 -141 -43 -133 -8 14 -80 270 -80 282 0 4 36 7 80 7 44 0 80 -2 80 -5z"/>
</g>
</svg>
